<svg width="21" height="21" viewBox="0 0 21 21" fill="none" xmlns="http://www.w3.org/2000/svg">
<path d="M2.25 20.25C1.63125 20.25 1.10156 20.0297 0.660938 19.5891C0.220313 19.1484 0 18.6188 0 18V2.25C0 1.63125 0.220313 1.10156 0.660938 0.660938C1.10156 0.220313 1.63125 0 2.25 0H18C18.6188 0 19.1484 0.220313 19.5891 0.660938C20.0297 1.10156 20.25 1.63125 20.25 2.25V18C20.25 18.6188 20.0297 19.1484 19.5891 19.5891C19.1484 20.0297 18.6188 20.25 18 20.25H2.25ZM2.25 18H18V2.25H2.25V18Z" fill="#1C1B1F"/>
<path d="M8.625 15.025L4.625 11.025L6.025 9.625L8.625 12.225L15.225 5.625L16.625 7.025L8.625 15.025Z" fill="#1C1B1F"/>
</svg>
