<svg width="21" height="21" viewBox="0 0 21 21" fill="none" xmlns="http://www.w3.org/2000/svg">
<path d="M2.625 20.625C2.00625 20.625 1.47656 20.4047 1.03594 19.9641C0.595313 19.5234 0.375 18.9937 0.375 18.375V2.625C0.375 2.00625 0.595313 1.47656 1.03594 1.03594C1.47656 0.595313 2.00625 0.375 2.625 0.375H18.375C18.9937 0.375 19.5234 0.595313 19.9641 1.03594C20.4047 1.47656 20.625 2.00625 20.625 2.625V18.375C20.625 18.9937 20.4047 19.5234 19.9641 19.9641C19.5234 20.4047 18.9937 20.625 18.375 20.625H2.625ZM2.625 18.375H18.375V2.625H2.625V18.375Z" fill="#797979"/>
</svg>
