<svg width="30" height="30" viewBox="0 0 30 30" fill="none" xmlns="http://www.w3.org/2000/svg">
<mask id="mask0_358_218" style="mask-type:alpha" maskUnits="userSpaceOnUse" x="0" y="0" width="30" height="30">
<rect width="30" height="30" fill="#D9D9D9"/>
</mask>
<g mask="url(#mask0_358_218)">
<path d="M19.3797 16.4253L18.2931 15.3391C18.7387 13.932 18.4415 12.7708 17.4015 11.8556C16.3613 10.9406 15.2395 10.6827 14.0359 11.0819L12.9497 9.99531C13.2315 9.8301 13.5472 9.7075 13.8965 9.6275C14.2459 9.54729 14.6137 9.50719 15 9.50719C16.3589 9.50719 17.51 9.97875 18.4531 10.9219C19.3962 11.865 19.8678 13.016 19.8678 14.375C19.8678 14.7613 19.8245 15.1362 19.7378 15.5C19.6513 15.8637 19.532 16.1722 19.3797 16.4253ZM23.375 20.3847L22.4015 19.4472C23.3582 18.7372 24.1987 17.9467 24.9231 17.0756C25.6475 16.2048 26.1987 15.3046 26.5769 14.375C25.5352 12.1185 23.9887 10.3325 21.9375 9.01687C19.8862 7.70125 17.6499 7.04344 15.2284 7.04344C14.4255 7.04344 13.6117 7.11667 12.7872 7.26312C11.9628 7.40979 11.2822 7.58573 10.7453 7.79094L9.65622 6.68281C10.3533 6.38156 11.2014 6.1299 12.2006 5.92781C13.2 5.72594 14.1732 5.625 15.1203 5.625C17.923 5.625 20.5066 6.41792 22.8712 8.00375C25.2358 9.58938 26.971 11.7131 28.0768 14.375C27.5673 15.5721 26.9195 16.6726 26.1334 17.6766C25.3474 18.6805 24.4279 19.5832 23.375 20.3847ZM25.2475 27.1584L20.19 22.1588C19.5489 22.4423 18.774 22.6742 17.8653 22.8544C16.9567 23.0348 16.0016 23.125 15 23.125C12.1346 23.125 9.52237 22.3321 7.16341 20.7463C4.80445 19.1606 3.05768 17.0369 1.9231 14.375C2.37185 13.2838 2.98799 12.2304 3.77153 11.215C4.55528 10.1998 5.46237 9.27156 6.49278 8.43031L2.66341 4.61312L3.66341 3.59375L26.1778 26.1081L25.2475 27.1584ZM7.46153 9.43031C6.68278 9.97677 5.90195 10.7164 5.11903 11.6491C4.33612 12.5818 3.76435 13.4904 3.40372 14.375C4.4583 16.6315 6.02924 18.4175 8.11653 19.7331C10.2038 21.0487 12.5576 21.7066 15.1778 21.7066C15.9534 21.7066 16.7207 21.6469 17.4797 21.5275C18.2384 21.4081 18.7845 21.2611 19.1178 21.0866L16.9015 18.87C16.6803 18.9823 16.385 19.0725 16.0156 19.1406C15.6462 19.2087 15.3077 19.2428 15 19.2428C13.6539 19.2428 12.5061 18.7745 11.5565 17.8378C10.6069 16.9011 10.1322 15.7469 10.1322 14.375C10.1322 14.0625 10.1662 13.73 10.2343 13.3775C10.3025 13.0248 10.3927 12.7234 10.505 12.4734L7.46153 9.43031Z" fill="#797979"/>
</g>
</svg>
