<svg width="28" height="30" viewBox="0 0 28 30" fill="none" xmlns="http://www.w3.org/2000/svg">
<path fill-rule="evenodd" clip-rule="evenodd" d="M17.7129 6.97447C17.7129 9.16951 15.9334 10.9489 13.7384 10.9489C11.5434 10.9489 9.76392 9.16951 9.76392 6.97447C9.76392 4.77943 11.5434 3 13.7384 3C15.9334 3 17.7129 4.77943 17.7129 6.97447ZM18.1644 12.3649C19.7204 11.0858 20.7129 9.14602 20.7129 6.97447C20.7129 3.12258 17.5903 0 13.7384 0C9.8865 0 6.76392 3.12258 6.76392 6.97447C6.76392 9.16162 7.77067 11.1136 9.34604 12.3924C8.15086 12.7089 7.08851 13.1555 6.14764 13.7151C4.13675 14.911 2.77667 16.5659 1.86691 18.359C0.0827827 21.8755 0 26.001 0 28.5043V30.0043H1.5H25.759H27.259L27.259 28.5043C27.259 25.9845 27.1348 21.8801 25.4213 18.3784C24.5492 16.5963 23.2515 14.9382 21.3351 13.7342C20.4043 13.1494 19.3509 12.6864 18.1644 12.3649ZM24.236 27.0043H3.02002C3.08945 24.7126 3.38359 22.0001 4.54226 19.7164C5.23675 18.3476 6.23289 17.1548 7.6811 16.2936C9.13408 15.4294 11.1377 14.8424 13.9328 14.8424C16.5212 14.8424 18.3816 15.4215 19.7392 16.2745C21.0973 17.1277 22.0514 18.3172 22.7266 19.697C23.849 21.9909 24.1592 24.717 24.236 27.0043Z" fill="#25414C"/>
</svg>
