<svg width="30" height="30" viewBox="0 0 30 30" fill="none" xmlns="http://www.w3.org/2000/svg">
<mask id="mask0_358_221" style="mask-type:alpha" maskUnits="userSpaceOnUse" x="0" y="0" width="30" height="30">
<rect width="30" height="30" fill="#D9D9D9"/>
</mask>
<g mask="url(#mask0_358_221)">
<path d="M15.0834 19.6178C16.4301 19.6178 17.577 19.1421 18.5241 18.1906C19.4711 17.2392 19.9447 16.0901 19.9447 14.7434C19.9447 13.3968 19.469 12.2499 18.5175 11.3028C17.566 10.3557 16.417 9.88219 15.0703 9.88219C13.7236 9.88219 12.5768 10.3579 11.6297 11.3094C10.6826 12.2608 10.2091 13.4099 10.2091 14.7566C10.2091 16.1032 10.6848 17.2501 11.6363 18.1972C12.5877 19.1443 13.7368 19.6178 15.0834 19.6178ZM15.0675 18.2141C14.1025 18.2141 13.2855 17.8764 12.6166 17.2009C11.9474 16.5255 11.6128 15.7054 11.6128 14.7406C11.6128 13.7756 11.9505 12.9586 12.6259 12.2897C13.3014 11.6205 14.1215 11.2859 15.0863 11.2859C16.0513 11.2859 16.8682 11.6236 17.5372 12.2991C18.2064 12.9745 18.5409 13.7946 18.5409 14.7594C18.5409 15.7244 18.2032 16.5414 17.5278 17.2103C16.8524 17.8795 16.0323 18.2141 15.0675 18.2141ZM15.0784 23.5C12.212 23.5 9.60969 22.6975 7.27156 21.0925C4.93344 19.4875 3.17625 17.3733 2 14.75C3.17625 12.1267 4.93292 10.0125 7.27 8.4075C9.60688 6.8025 12.2086 6 15.0753 6C17.9418 6 20.5441 6.8025 22.8822 8.4075C25.2203 10.0125 26.9775 12.1267 28.1538 14.75C26.9775 17.3733 25.2208 19.4875 22.8838 21.0925C20.5469 22.6975 17.9451 23.5 15.0784 23.5ZM15.0716 22.0816C17.5559 22.0816 19.8353 21.4174 21.9097 20.0891C23.9843 18.7605 25.5656 16.9808 26.6538 14.75C25.5656 12.5192 23.986 10.7395 21.915 9.41094C19.844 8.0826 17.5664 7.41844 15.0822 7.41844C12.5978 7.41844 10.3184 8.0826 8.24406 9.41094C6.16948 10.7395 4.58167 12.5192 3.48062 14.75C4.58167 16.9808 6.16771 18.7605 8.23875 20.0891C10.3098 21.4174 12.5874 22.0816 15.0716 22.0816Z" fill="#797979"/>
</g>
</svg>
