<svg width="48" height="48" viewBox="0 0 48 48" fill="none" xmlns="http://www.w3.org/2000/svg">
<mask id="mask0_378_16" style="mask-type:alpha" maskUnits="userSpaceOnUse" x="0" y="0" width="48" height="48">
<rect width="48" height="48" fill="#D9D9D9"/>
</mask>
<g mask="url(#mask0_378_16)">
<path d="M21.8155 29.4999H26.1845L24.9925 22.5959C25.6205 22.3472 26.1313 21.9569 26.525 21.4249C26.9187 20.8929 27.1155 20.2961 27.1155 19.6344C27.1155 18.7704 26.8122 18.0352 26.2055 17.4289C25.5992 16.8226 24.864 16.5194 24 16.5194C23.136 16.5194 22.4008 16.8226 21.7945 17.4289C21.1878 18.0352 20.8845 18.7704 20.8845 19.6344C20.8845 20.2961 21.0813 20.8929 21.475 21.4249C21.8687 21.9569 22.3795 22.3472 23.0075 22.5959L21.8155 29.4999ZM24 42.9304C19.654 41.7381 16.0675 39.1516 13.2405 35.1709C10.4135 31.1902 9 26.7819 9 21.9459V10.6614L24 5.0459L39 10.6614V21.9459C39 26.7819 37.5865 31.1902 34.7595 35.1709C31.9325 39.1516 28.346 41.7381 24 42.9304ZM24 40.5614C27.7307 39.3461 30.7852 37.0089 33.1635 33.5499C35.5415 30.0909 36.7305 26.2229 36.7305 21.9459V12.2424L24 7.4574L11.2695 12.2424V21.9459C11.2695 26.2229 12.4585 30.0909 14.8365 33.5499C17.2148 37.0089 20.2693 39.3461 24 40.5614Z" fill="#25414C"/>
</g>
</svg>
