<svg width="26" height="28" viewBox="0 0 26 28" fill="none" xmlns="http://www.w3.org/2000/svg">
<path fill-rule="evenodd" clip-rule="evenodd" d="M10.2939 3.50207C10.2939 3.30913 10.295 3.14182 10.3141 2.97597C10.3331 2.81004 10.3649 2.70185 10.3961 2.63716C10.4206 2.58636 10.4366 2.57626 10.4497 2.56842C10.4689 2.55691 10.5738 2.5 10.8526 2.5H10.8611H10.8697H10.8782H10.8868H10.8955H10.9041H10.9128H10.9216H10.9303H10.9391H10.948H10.9569H10.9658H10.9747H10.9837H10.9927H11.0017H11.0108H11.0199H11.029H11.0382H11.0473H11.0566H11.0658H11.0751H11.0844H11.0938H11.1032H11.1126H11.122H11.1315H11.141H11.1505H11.1601H11.1697H11.1793H11.1889H11.1986H11.2083H11.2181H11.2278H11.2376H11.2475H11.2573H11.2672H11.2771H11.287H11.297H11.307H11.317H11.327H11.3371H11.3472H11.3573H11.3675H11.3777H11.3879H11.3981H11.4084H11.4186H11.4289H11.4393H11.4496H11.46H11.4704H11.4809H11.4913H11.5018H11.5123H11.5228H11.5334H11.544H11.5546H11.5652H11.5758H11.5865H11.5972H11.6079H11.6187H11.6294H11.6402H11.651H11.6619H11.6727H11.6836H11.6945H11.7054H11.7163H11.7273H11.7383H11.7493H11.7603H11.7713H11.7824H11.7935H11.8046H11.8157H11.8269H11.838H11.8492H11.8604H11.8716H11.8829H11.8941H11.9054H11.9167H11.928H11.9393H11.9507H11.9621H11.9735H11.9849H11.9963H12.0077H12.0192H12.0307H12.0421H12.0536H12.0652H12.0767H12.0883H12.0998H12.1114H12.123H12.1346H12.1463H12.1579H12.1696H12.1813H12.193H12.2047H12.2164H12.2281H12.2399H12.2517H12.2634H12.2752H12.287H12.2989H12.3107H12.3225H12.3344H12.3463H12.3582H12.3701H12.382H12.3939H12.4058H12.4178H12.4297H12.4417H12.4537H12.4657H12.4777H12.4897H12.5017H12.5137H12.5258H12.5378H12.5499H12.562H12.5741H12.5862H12.5983H12.6104H12.6225H12.6346H12.6468H12.6589H12.6711H12.6833H12.6954H12.7076H12.7198H12.732H12.7442H12.7564H12.7686H12.7809H12.7931H12.8053H12.8176H12.8299H12.8421H12.8544H12.8667H12.8789H12.8912H12.9035H12.9158H12.9281H12.9404H12.9527H12.965H12.9774H12.9897H13.002H13.0143H13.0267H13.039H13.0514H13.0637H13.0761H13.0884H13.1008H13.1132H13.1255H13.1379H13.1503H13.1626H13.175H13.1874H13.1997H13.2121H13.2245H13.2369H13.2493H13.2617H13.274H13.2864H13.2988H13.3112H13.3236H13.336H13.3484H13.3608H13.3731H13.3855H13.3979H13.4103H13.4227H13.4351H13.4474H13.4598H13.4722H13.4846H13.4969H13.5093H13.5217H13.5341H13.5464H13.5588H13.5711H13.5835H13.5959H13.6082H13.6205H13.6329H13.6452H13.6576H13.6699H13.6822H13.6945H13.7069H13.7192H13.7315H13.7438H13.7561H13.7684H13.7807H13.7929H13.8052H13.8175H13.8297H13.842H13.8543H13.8665H13.8787H13.891H13.9032H13.9154H13.9276H13.9398H13.952H13.9642H13.9764H13.9885H14.0007H14.0128H14.025H14.0371H14.0492H14.0614H14.0735H14.0856H14.0977H14.1097H14.1218H14.1339H14.1459H14.1579H14.17H14.182H14.194H14.206H14.218H14.2299H14.2419H14.2539H14.2658H14.2777H14.2896H14.3015H14.3134H14.3253H14.3372H14.349H14.3609H14.3727H14.3845H14.3963H14.4081H14.4198H14.4316H14.4433H14.4551H14.4668H14.4785H14.4902H14.5018H14.5135H14.5251H14.5367H14.5483H14.5599H14.5715H14.5831H14.5946H14.6061H14.6177H14.6292H14.6406H14.6521H14.6635H14.675H14.6864H14.6978H14.7091H14.7205H14.7318H14.7431H14.7545H14.7657H14.777H14.7882H14.7995H14.8107H14.8219H14.833H14.8442H14.8553H14.8664H14.8775H14.8886H14.8996H14.9107H14.9217H14.9326H14.9436H14.9546H14.9655H14.9764H14.9873H14.9981H15.009H15.0198H15.0306H15.0413H15.0521H15.0628H15.0735H15.0842H15.0948H15.1055H15.1161H15.1267H15.1372H15.1478H15.1583H15.1688H15.1792H15.1897H15.2001H15.2105H15.2208H15.2312H15.2415H15.2518H15.262H15.2723H15.2825H15.2927H15.3028H15.313H15.3231H15.3331H15.3432H15.3532H15.3632H15.3732H15.3831H15.393H15.4029H15.4128H15.4226H15.4324H15.4422H15.4519H15.4617H15.4713H15.481H15.4906H15.5002H15.5098H15.5193H15.5288H15.5383H15.5478H15.5572H15.5666H15.5759H15.5853H15.5946H15.6038H15.6131H15.6223H15.6314H15.6406H15.6497H15.6588H15.6678H15.6768H15.6858H15.6947H15.7036H15.7125H15.7214H15.7302H15.739H15.7477H15.7564H15.7651H15.7737H15.7823H15.7909H15.7995H15.808H15.8164H15.8249H15.8333H15.8416H15.85H15.8582H15.8665H15.8747H15.8829H15.8911H15.8992H15.9072H15.9153H15.9233H15.9313H15.9392H15.9471H15.9549H15.9627H15.9705H15.9783H15.986H15.9936H16.0012H16.0088H16.0164H16.0239H16.0313H16.0388H16.0462H16.0535H16.0608H16.0681H16.0753H16.0825H16.0897H16.0968H16.1038H16.1109H16.1179H16.1248H16.1317H16.1386H16.1454H16.1522H16.1589H16.1656H16.1723H16.1789H16.1854H16.192H16.1984H16.2049H16.2113H16.2176H16.2239H16.2302H16.2364H16.2426H16.2487H16.2548H16.2609H16.2669H16.2728H16.2787C16.5791 2.5 16.6962 2.55621 16.7191 2.56891L16.7223 2.57058C16.7294 2.57424 16.7326 2.57588 16.7442 2.59899C16.7666 2.64358 16.7977 2.73671 16.8169 2.90872C16.8362 3.08226 16.8374 3.26748 16.8374 3.50207V3.50842V3.51482V3.52126V3.52775V3.53427V3.54084V3.54746V3.55411V3.56081V3.56755V3.57433V3.58115V3.58802V3.59492V3.60187V3.60886V3.61589V3.62296V3.63007V3.63722V3.64441V3.65165V3.65892V3.66623V3.67359V3.68098V3.68842V3.69589V3.7034V3.71095V3.71854V3.72617V3.73384V3.74155V3.7493V3.75708V3.7649V3.77276V3.78066V3.7886V3.79658V3.80459V3.81264V3.82073V3.82885V3.83702V3.84522V3.85345V3.86172V3.87003V3.87838V3.88676V3.89518V3.90363V3.91212V3.92065V3.92921V3.93781V3.94644V3.95511V3.96381V3.97255V3.98132V3.99013V3.99897V4.00785V4.01676V4.0257V4.03468V4.0437V4.05274V4.06182V4.07093V4.08008V4.08926V4.09847V4.10772V4.117V4.12631V4.13565V4.14503V4.15444V4.16388V4.17335V4.18285V4.19239V4.20195V4.21155V4.22118V4.23084V4.24053V4.25026V4.26001V4.26979V4.27961V4.28945V4.29933V4.30923V4.31917V4.32913V4.33913V4.34915V4.3592V4.36928V4.3794V4.38953V4.3997V4.4099V4.42013V4.43038V4.44066V4.45097V4.46131V4.47168V4.48207V4.4925V4.50294V4.51342V4.52392V4.53445V4.54501V4.5556V4.56621V4.57684V4.58751V4.5982V4.60891V4.61965V4.63042V4.64121V4.65203V4.66288V4.67375V4.68464V4.69556V4.7065V4.71747V4.72847V4.73948V4.75052V4.76159V4.77268V4.78379V4.79493V4.80609V4.81728V4.82848V4.83972V4.85097V4.86225V4.87355V4.88487V4.89621V4.90758V4.91897V4.93038V4.94182V4.95327V4.96475V4.97625V4.98777V4.99931V5.01087V5.02245V5.03406V5.04568V5.05733V5.06899V5.08068V5.09238V5.10411V5.11586V5.12762V5.13941V5.15121V5.16304V5.17488V5.18674V5.19862V5.21052V5.22244V5.23438V5.24634V5.25831V5.2703V5.28231V5.29434V5.30639V5.31845V5.33053V5.34263V5.35474V5.36687V5.37902V5.39119V5.40337V5.41557V5.42778V5.44002V5.45226V5.46453V5.47681V5.4891V5.50141V5.51374V5.52608V5.53843V5.5508V5.56319V5.57559V5.588V5.60043V5.61288V5.62533V5.63781V5.65029V5.66279V5.6753V5.68783V5.70037V5.71292V5.72549V5.73807V5.75066V5.76326V5.77588V5.78851V5.80115V5.8138V5.82647V5.83914V5.85183V5.86453V5.87724V5.88997V5.9027V5.91545V5.9282V5.94097V5.95374V5.96653V5.97933V5.99214V6.00496V6.01778V6.03062V6.04347V6.05633V6.06919V6.08207V6.09495V6.10784V6.12075V6.13366V6.14658V6.1595V6.17244V6.18538V6.19834V6.2113V6.22426V6.23724V6.25022V6.26321V6.27621V6.28921V6.30222V6.31524V6.32826V6.34129V6.35433V6.36737V6.38042V6.39348V6.40654V6.41961V6.43268V6.44576V6.45884V6.47193V6.48502V6.49812V6.51122V6.52433V6.53744V6.55055V6.56367V6.5768V6.58992V6.60306V6.61619V6.62933V6.64247V6.65496H10.2939V3.50207ZM7.79395 9.15496V9.35744C7.79395 10.0478 8.35359 10.6074 9.04395 10.6074C9.7343 10.6074 10.2939 10.0478 10.2939 9.35744V9.15496H16.8374V9.16321V9.17422V9.1852V9.19615V9.20708V9.21799V9.22887V9.23973V9.25056V9.26136V9.27214V9.28289V9.29362V9.30432V9.315V9.32565V9.33627V9.34687V9.35744C16.8374 10.0478 17.3971 10.6074 18.0874 10.6074C18.7778 10.6074 19.3374 10.0478 19.3374 9.35744V9.34687V9.33627V9.32565V9.315V9.30432V9.29362V9.28289V9.27214V9.26136V9.25056V9.23973V9.22887V9.21799V9.20708V9.19615V9.1852V9.17422V9.16321V9.15496H22C22.8284 9.15496 23.5 9.82653 23.5 10.655V23.374C23.5 24.2024 22.8284 24.874 22 24.874H4C3.17157 24.874 2.5 24.2024 2.5 23.374V10.655C2.5 9.82653 3.17158 9.15496 4 9.15496H7.79395ZM7.79395 6.65496V3.50207L7.79386 3.45458C7.79297 3.09603 7.79095 2.28445 8.14395 1.55189C8.34556 1.13351 8.66864 0.721349 9.16426 0.424221C9.65375 0.130766 10.2271 0 10.8526 0H10.8611H10.8697H10.8782H10.8868H10.8955H10.9041H10.9128H10.9216H10.9303H10.9391H10.948H10.9569H10.9658H10.9747H10.9837H10.9927H11.0017H11.0108H11.0199H11.029H11.0382H11.0473H11.0566H11.0658H11.0751H11.0844H11.0938H11.1032H11.1126H11.122H11.1315H11.141H11.1505H11.1601H11.1697H11.1793H11.1889H11.1986H11.2083H11.2181H11.2278H11.2376H11.2475H11.2573H11.2672H11.2771H11.287H11.297H11.307H11.317H11.327H11.3371H11.3472H11.3573H11.3675H11.3777H11.3879H11.3981H11.4084H11.4186H11.4289H11.4393H11.4496H11.46H11.4704H11.4809H11.4913H11.5018H11.5123H11.5228H11.5334H11.544H11.5546H11.5652H11.5758H11.5865H11.5972H11.6079H11.6187H11.6294H11.6402H11.651H11.6619H11.6727H11.6836H11.6945H11.7054H11.7163H11.7273H11.7383H11.7493H11.7603H11.7713H11.7824H11.7935H11.8046H11.8157H11.8269H11.838H11.8492H11.8604H11.8716H11.8829H11.8941H11.9054H11.9167H11.928H11.9393H11.9507H11.9621H11.9735H11.9849H11.9963H12.0077H12.0192H12.0307H12.0421H12.0536H12.0652H12.0767H12.0883H12.0998H12.1114H12.123H12.1346H12.1463H12.1579H12.1696H12.1813H12.193H12.2047H12.2164H12.2281H12.2399H12.2517H12.2634H12.2752H12.287H12.2989H12.3107H12.3225H12.3344H12.3463H12.3582H12.3701H12.382H12.3939H12.4058H12.4178H12.4297H12.4417H12.4537H12.4657H12.4777H12.4897H12.5017H12.5137H12.5258H12.5378H12.5499H12.562H12.5741H12.5862H12.5983H12.6104H12.6225H12.6346H12.6468H12.6589H12.6711H12.6833H12.6954H12.7076H12.7198H12.732H12.7442H12.7564H12.7686H12.7809H12.7931H12.8053H12.8176H12.8299H12.8421H12.8544H12.8667H12.8789H12.8912H12.9035H12.9158H12.9281H12.9404H12.9527H12.965H12.9774H12.9897H13.002H13.0143H13.0267H13.039H13.0514H13.0637H13.0761H13.0884H13.1008H13.1132H13.1255H13.1379H13.1503H13.1626H13.175H13.1874H13.1997H13.2121H13.2245H13.2369H13.2493H13.2617H13.274H13.2864H13.2988H13.3112H13.3236H13.336H13.3484H13.3608H13.3731H13.3855H13.3979H13.4103H13.4227H13.4351H13.4474H13.4598H13.4722H13.4846H13.4969H13.5093H13.5217H13.5341H13.5464H13.5588H13.5711H13.5835H13.5959H13.6082H13.6205H13.6329H13.6452H13.6576H13.6699H13.6822H13.6945H13.7069H13.7192H13.7315H13.7438H13.7561H13.7684H13.7807H13.7929H13.8052H13.8175H13.8297H13.842H13.8543H13.8665H13.8787H13.891H13.9032H13.9154H13.9276H13.9398H13.952H13.9642H13.9764H13.9885H14.0007H14.0128H14.025H14.0371H14.0492H14.0614H14.0735H14.0856H14.0977H14.1097H14.1218H14.1339H14.1459H14.1579H14.17H14.182H14.194H14.206H14.218H14.2299H14.2419H14.2539H14.2658H14.2777H14.2896H14.3015H14.3134H14.3253H14.3372H14.349H14.3609H14.3727H14.3845H14.3963H14.4081H14.4198H14.4316H14.4433H14.4551H14.4668H14.4785H14.4902H14.5018H14.5135H14.5251H14.5367H14.5483H14.5599H14.5715H14.5831H14.5946H14.6061H14.6177H14.6292H14.6406H14.6521H14.6635H14.675H14.6864H14.6978H14.7091H14.7205H14.7318H14.7431H14.7545H14.7657H14.777H14.7882H14.7995H14.8107H14.8219H14.833H14.8442H14.8553H14.8664H14.8775H14.8886H14.8996H14.9107H14.9217H14.9326H14.9436H14.9546H14.9655H14.9764H14.9873H14.9981H15.009H15.0198H15.0306H15.0413H15.0521H15.0628H15.0735H15.0842H15.0948H15.1055H15.1161H15.1267H15.1372H15.1478H15.1583H15.1688H15.1792H15.1897H15.2001H15.2105H15.2208H15.2312H15.2415H15.2518H15.262H15.2723H15.2825H15.2927H15.3028H15.313H15.3231H15.3331H15.3432H15.3532H15.3632H15.3732H15.3831H15.393H15.4029H15.4128H15.4226H15.4324H15.4422H15.4519H15.4617H15.4713H15.481H15.4906H15.5002H15.5098H15.5193H15.5288H15.5383H15.5478H15.5572H15.5666H15.5759H15.5853H15.5946H15.6038H15.6131H15.6223H15.6314H15.6406H15.6497H15.6588H15.6678H15.6768H15.6858H15.6947H15.7036H15.7125H15.7214H15.7302H15.739H15.7477H15.7564H15.7651H15.7737H15.7823H15.7909H15.7995H15.808H15.8164H15.8249H15.8333H15.8416H15.85H15.8582H15.8665H15.8747H15.8829H15.8911H15.8992H15.9072H15.9153H15.9233H15.9313H15.9392H15.9471H15.9549H15.9627H15.9705H15.9783H15.986H15.9936H16.0012H16.0088H16.0164H16.0239H16.0313H16.0388H16.0462H16.0535H16.0608H16.0681H16.0753H16.0825H16.0897H16.0968H16.1038H16.1109H16.1179H16.1248H16.1317H16.1386H16.1454H16.1522H16.1589H16.1656H16.1723H16.1789H16.1854H16.192H16.1984H16.2049H16.2113H16.2176H16.2239H16.2302H16.2364H16.2426H16.2487H16.2548H16.2609H16.2669H16.2728H16.2787C16.8827 0 17.4439 0.112692 17.9296 0.381507C18.4288 0.657726 18.7656 1.05329 18.9785 1.47746C19.3413 2.2002 19.3388 3.02697 19.3376 3.43828L19.3374 3.50207V3.50842V3.51482V3.52126V3.52775V3.53427V3.54084V3.54746V3.55411V3.56081V3.56755V3.57433V3.58115V3.58802V3.59492V3.60187V3.60886V3.61589V3.62296V3.63007V3.63722V3.64441V3.65165V3.65892V3.66623V3.67359V3.68098V3.68842V3.69589V3.7034V3.71095V3.71854V3.72617V3.73384V3.74155V3.7493V3.75708V3.7649V3.77276V3.78066V3.7886V3.79658V3.80459V3.81264V3.82073V3.82885V3.83702V3.84522V3.85345V3.86172V3.87003V3.87838V3.88676V3.89518V3.90363V3.91212V3.92065V3.92921V3.93781V3.94644V3.95511V3.96381V3.97255V3.98132V3.99013V3.99897V4.00785V4.01676V4.0257V4.03468V4.0437V4.05274V4.06182V4.07093V4.08008V4.08926V4.09847V4.10772V4.117V4.12631V4.13565V4.14503V4.15444V4.16388V4.17335V4.18285V4.19239V4.20195V4.21155V4.22118V4.23084V4.24053V4.25026V4.26001V4.26979V4.27961V4.28945V4.29933V4.30923V4.31917V4.32913V4.33913V4.34915V4.3592V4.36928V4.3794V4.38953V4.3997V4.4099V4.42013V4.43038V4.44066V4.45097V4.46131V4.47168V4.48207V4.4925V4.50294V4.51342V4.52392V4.53445V4.54501V4.5556V4.56621V4.57684V4.58751V4.5982V4.60891V4.61965V4.63042V4.64121V4.65203V4.66288V4.67375V4.68464V4.69556V4.7065V4.71747V4.72847V4.73948V4.75052V4.76159V4.77268V4.78379V4.79493V4.80609V4.81728V4.82848V4.83972V4.85097V4.86225V4.87355V4.88487V4.89621V4.90758V4.91897V4.93038V4.94182V4.95327V4.96475V4.97625V4.98777V4.99931V5.01087V5.02245V5.03406V5.04568V5.05733V5.06899V5.08068V5.09238V5.10411V5.11586V5.12762V5.13941V5.15121V5.16304V5.17488V5.18674V5.19862V5.21052V5.22244V5.23438V5.24634V5.25831V5.2703V5.28231V5.29434V5.30639V5.31845V5.33053V5.34263V5.35474V5.36687V5.37902V5.39119V5.40337V5.41557V5.42778V5.44002V5.45226V5.46453V5.47681V5.4891V5.50141V5.51374V5.52608V5.53843V5.5508V5.56319V5.57559V5.588V5.60043V5.61288V5.62533V5.63781V5.65029V5.66279V5.6753V5.68783V5.70037V5.71292V5.72549V5.73807V5.75066V5.76326V5.77588V5.78851V5.80115V5.8138V5.82647V5.83914V5.85183V5.86453V5.87724V5.88997V5.9027V5.91545V5.9282V5.94097V5.95374V5.96653V5.97933V5.99214V6.00496V6.01778V6.03062V6.04347V6.05633V6.06919V6.08207V6.09495V6.10784V6.12075V6.13366V6.14658V6.1595V6.17244V6.18538V6.19834V6.2113V6.22426V6.23724V6.25022V6.26321V6.27621V6.28921V6.30222V6.31524V6.32826V6.34129V6.35433V6.36737V6.38042V6.39348V6.40654V6.41961V6.43268V6.44576V6.45884V6.47193V6.48502V6.49812V6.51122V6.52433V6.53744V6.55055V6.56367V6.5768V6.58992V6.60306V6.61619V6.62933V6.64247V6.65496H22C24.2091 6.65496 26 8.44582 26 10.655V23.374C26 25.5831 24.2091 27.374 22 27.374H4C1.79086 27.374 0 25.5831 0 23.374V10.655C0 8.44582 1.79086 6.65496 4 6.65496H7.79395Z" fill="#25414C"/>
</svg>
