<svg width="60" height="60" viewBox="0 0 60 60" fill="none" xmlns="http://www.w3.org/2000/svg">
<rect width="60" height="60" rx="30" fill="#1A2E35"/>
<path fill-rule="evenodd" clip-rule="evenodd" d="M27.2935 18.625C27.2935 18.4119 27.2944 18.2121 27.3151 18.0113C27.336 17.8092 27.3725 17.6609 27.4162 17.5602C27.4553 17.4702 27.4866 17.4473 27.4991 17.4391C27.5104 17.4315 27.5966 17.375 27.8522 17.375H27.8607H27.8692H27.8778H27.8864H27.895H27.9037H27.9124H27.9211H27.9299H27.9387H27.9475H27.9564H27.9653H27.9742H27.9832H27.9922H28.0012H28.0103H28.0194H28.0285H28.0377H28.0469H28.0561H28.0654H28.0746H28.084H28.0933H28.1027H28.1121H28.1215H28.131H28.1405H28.1501H28.1596H28.1692H28.1788H28.1885H28.1982H28.2079H28.2176H28.2274H28.2372H28.247H28.2568H28.2667H28.2766H28.2866H28.2965H28.3065H28.3165H28.3266H28.3366H28.3467H28.3569H28.367H28.3772H28.3874H28.3976H28.4079H28.4182H28.4285H28.4388H28.4492H28.4595H28.47H28.4804H28.4908H28.5013H28.5118H28.5224H28.5329H28.5435H28.5541H28.5647H28.5754H28.586H28.5967H28.6075H28.6182H28.629H28.6397H28.6506H28.6614H28.6722H28.6831H28.694H28.7049H28.7159H28.7268H28.7378H28.7488H28.7598H28.7709H28.7819H28.793H28.8041H28.8152H28.8264H28.8376H28.8487H28.8599H28.8712H28.8824H28.8937H28.9049H28.9162H28.9275H28.9389H28.9502H28.9616H28.973H28.9844H28.9958H29.0073H29.0187H29.0302H29.0417H29.0532H29.0647H29.0762H29.0878H29.0994H29.111H29.1226H29.1342H29.1458H29.1575H29.1691H29.1808H29.1925H29.2042H29.2159H29.2277H29.2394H29.2512H29.263H29.2748H29.2866H29.2984H29.3102H29.3221H29.3339H29.3458H29.3577H29.3696H29.3815H29.3934H29.4054H29.4173H29.4293H29.4412H29.4532H29.4652H29.4772H29.4892H29.5012H29.5133H29.5253H29.5374H29.5494H29.5615H29.5736H29.5857H29.5978H29.6099H29.622H29.6342H29.6463H29.6585H29.6706H29.6828H29.695H29.7071H29.7193H29.7315H29.7437H29.756H29.7682H29.7804H29.7926H29.8049H29.8171H29.8294H29.8416H29.8539H29.8662H29.8785H29.8908H29.903H29.9153H29.9276H29.9399H29.9523H29.9646H29.9769H29.9892H30.0015H30.0139H30.0262H30.0386H30.0509H30.0633H30.0756H30.088H30.1003H30.1127H30.125H30.1374H30.1498H30.1622H30.1745H30.1869H30.1993H30.2117H30.224H30.2364H30.2488H30.2612H30.2736H30.286H30.2983H30.3107H30.3231H30.3355H30.3479H30.3603H30.3727H30.3851H30.3974H30.4098H30.4222H30.4346H30.447H30.4594H30.4717H30.4841H30.4965H30.5089H30.5212H30.5336H30.546H30.5583H30.5707H30.583H30.5954H30.6077H30.6201H30.6324H30.6448H30.6571H30.6694H30.6818H30.6941H30.7064H30.7187H30.731H30.7433H30.7556H30.7679H30.7802H30.7925H30.8047H30.817H30.8293H30.8415H30.8538H30.866H30.8783H30.8905H30.9027H30.9149H30.9271H30.9393H30.9515H30.9637H30.9759H30.9881H31.0002H31.0124H31.0245H31.0367H31.0488H31.0609H31.073H31.0851H31.0972H31.1093H31.1213H31.1334H31.1454H31.1575H31.1695H31.1815H31.1935H31.2055H31.2175H31.2295H31.2414H31.2534H31.2653H31.2773H31.2892H31.3011H31.313H31.3248H31.3367H31.3485H31.3604H31.3722H31.384H31.3958H31.4076H31.4194H31.4311H31.4429H31.4546H31.4663H31.478H31.4897H31.5014H31.513H31.5247H31.5363H31.5479H31.5595H31.571H31.5826H31.5942H31.6057H31.6172H31.6287H31.6402H31.6516H31.6631H31.6745H31.6859H31.6973H31.7087H31.72H31.7314H31.7427H31.754H31.7653H31.7765H31.7878H31.799H31.8102H31.8214H31.8326H31.8437H31.8548H31.866H31.877H31.8881H31.8992H31.9102H31.9212H31.9322H31.9431H31.9541H31.965H31.9759H31.9868H31.9977H32.0085H32.0193H32.0301H32.0409H32.0516H32.0623H32.073H32.0837H32.0944H32.105H32.1156H32.1262H32.1368H32.1473H32.1578H32.1683H32.1788H32.1892H32.1996H32.21H32.2204H32.2307H32.241H32.2513H32.2616H32.2718H32.282H32.2922H32.3024H32.3125H32.3226H32.3327H32.3427H32.3527H32.3627H32.3727H32.3827H32.3926H32.4025H32.4123H32.4221H32.432H32.4417H32.4515H32.4612H32.4709H32.4805H32.4902H32.4998H32.5093H32.5189H32.5284H32.5379H32.5473H32.5567H32.5661H32.5755H32.5848H32.5941H32.6034H32.6126H32.6218H32.631H32.6401H32.6492H32.6583H32.6673H32.6763H32.6853H32.6943H32.7032H32.712H32.7209H32.7297H32.7385H32.7472H32.7559H32.7646H32.7733H32.7819H32.7904H32.799H32.8075H32.816H32.8244H32.8328H32.8412H32.8495H32.8578H32.866H32.8743H32.8824H32.8906H32.8987H32.9068H32.9148H32.9228H32.9308H32.9387H32.9466H32.9545H32.9623H32.97H32.9778H32.9855H32.9931H33.0008H33.0084H33.0159H33.0234H33.0309H33.0383H33.0457H33.053H33.0604H33.0676H33.0749H33.082H33.0892H33.0963H33.1034H33.1104H33.1174H33.1243H33.1312H33.1381H33.1449H33.1517H33.1584H33.1651H33.1718H33.1784H33.185H33.1915H33.198H33.2044H33.2108H33.2172H33.2235H33.2297H33.236H33.2421H33.2483H33.2544H33.2604H33.2664H33.2724H33.2783C33.5582 17.375 33.6568 17.4322 33.6696 17.4401L33.6707 17.4407C33.6772 17.4445 33.6946 17.4547 33.7219 17.515C33.758 17.5948 33.7939 17.7282 33.815 17.9375C33.836 18.1467 33.837 18.3665 33.837 18.625V18.6321V18.6392V18.6463V18.6535V18.6608V18.668V18.6754V18.6828V18.6902V18.6977V18.7052V18.7128V18.7204V18.7281V18.7358V18.7435V18.7514V18.7592V18.7671V18.775V18.783V18.791V18.7991V18.8072V18.8154V18.8236V18.8319V18.8402V18.8485V18.8569V18.8653V18.8738V18.8823V18.8908V18.8994V18.9081V18.9168V18.9255V18.9343V18.9431V18.9519V18.9608V18.9698V18.9787V18.9878V18.9968V19.0059V19.0151V19.0243V19.0335V19.0427V19.052V19.0614V19.0708V19.0802V19.0897V19.0992V19.1087V19.1183V19.1279V19.1376V19.1473V19.157V19.1668V19.1766V19.1865V19.1964V19.2063V19.2163V19.2263V19.2363V19.2464V19.2565V19.2667V19.2768V19.2871V19.2973V19.3076V19.318V19.3283V19.3387V19.3492V19.3597V19.3702V19.3807V19.3913V19.4019V19.4126V19.4233V19.434V19.4448V19.4556V19.4664V19.4772V19.4881V19.4991V19.51V19.521V19.5321V19.5431V19.5542V19.5653V19.5765V19.5877V19.5989V19.6102V19.6215V19.6328V19.6441V19.6555V19.6669V19.6784V19.6899V19.7014V19.7129V19.7245V19.7361V19.7477V19.7594V19.771V19.7828V19.7945V19.8063V19.8181V19.8299V19.8418V19.8537V19.8656V19.8776V19.8896V19.9016V19.9136V19.9257V19.9378V19.9499V19.962V19.9742V19.9864V19.9986V20.0109V20.0232V20.0355V20.0478V20.0602V20.0726V20.085V20.0974V20.1099V20.1224V20.1349V20.1475V20.16V20.1726V20.1853V20.1979V20.2106V20.2233V20.236V20.2487V20.2615V20.2743V20.2871V20.2999V20.3128V20.3256V20.3386V20.3515V20.3644V20.3774V20.3904V20.4034V20.4165V20.4295V20.4426V20.4557V20.4688V20.482V20.4951V20.5083V20.5215V20.5348V20.548V20.5613V20.5746V20.5879V20.6012V20.6146V20.628V20.6414V20.6548V20.6682V20.6816V20.6951V20.7086V20.7221V20.7356V20.7492V20.7627V20.7763V20.7899V20.8035V20.8171V20.8308V20.8445V20.8581V20.8718V20.8856V20.8993V20.913V20.9268V20.9406V20.9544V20.9682V20.982V20.9959V21.0097V21.0236V21.0375V21.0514V21.0653V21.0793V21.0932V21.1072V21.1211V21.1351V21.1491V21.1632V21.1772V21.1912V21.2053V21.2194V21.2335V21.2476V21.2617V21.2758V21.2899V21.3041V21.3182V21.3324V21.3466V21.3608V21.375V21.3892V21.4034V21.4177V21.4319V21.4462V21.4605V21.4747V21.489V21.5033V21.5177V21.532V21.5463V21.5606V21.575V21.5894V21.6037V21.6181V21.6325V21.6469V21.6613V21.6757V21.6901V21.7046V21.719V21.7334V21.7479V21.7623V21.7768V21.7913V21.8058V21.8202V21.8347V21.8492V21.8637V21.8782V21.8928V21.9073V21.9218V21.9364V21.9509V21.9654V21.98V21.9945V22.0091V22.0237V22.0382V22.0528V22.0674V22.082V22.0965V22.1111V22.125H27.2935V18.625ZM24.7935 24.625V25.125C24.7935 25.8154 25.3531 26.375 26.0435 26.375C26.7338 26.375 27.2935 25.8154 27.2935 25.125V24.625H33.837V24.6341V24.6468V24.6596V24.6723V24.685V24.6977V24.7104V24.723V24.7356V24.7482V24.7607V24.7733V24.7858V24.7982V24.8107V24.8231V24.8355V24.8479V24.8603V24.8726V24.8849V24.8971V24.9094V24.9216V24.9338V24.946V24.9581V24.9702V24.9823V24.9943V25.0064V25.0183V25.0303V25.0422V25.0542V25.066V25.0779V25.0897V25.1015V25.1133V25.125C33.837 25.8154 34.3966 26.375 35.087 26.375C35.7773 26.375 36.337 25.8154 36.337 25.125V25.1133V25.1015V25.0897V25.0779V25.066V25.0542V25.0422V25.0303V25.0183V25.0064V24.9943V24.9823V24.9702V24.9581V24.946V24.9338V24.9216V24.9094V24.8971V24.8849V24.8726V24.8603V24.8479V24.8355V24.8231V24.8107V24.7982V24.7858V24.7733V24.7607V24.7482V24.7356V24.723V24.7104V24.6977V24.685V24.6723V24.6596V24.6468V24.6341V24.625H39C39.8284 24.625 40.5 25.2966 40.5 26.125V41.125C40.5 41.9534 39.8284 42.625 39 42.625H21C20.1716 42.625 19.5 41.9534 19.5 41.125V26.125C19.5 25.2966 20.1716 24.625 21 24.625H24.7935ZM24.7935 22.125V18.625L24.7934 18.5755C24.7927 18.178 24.7912 17.329 25.1229 16.5648C25.3099 16.134 25.6177 15.6881 26.114 15.3578C26.6114 15.0268 27.2034 14.875 27.8522 14.875H27.8607H27.8692H27.8778H27.8864H27.895H27.9037H27.9124H27.9211H27.9299H27.9387H27.9475H27.9564H27.9653H27.9742H27.9832H27.9922H28.0012H28.0103H28.0194H28.0285H28.0377H28.0469H28.0561H28.0654H28.0746H28.084H28.0933H28.1027H28.1121H28.1215H28.131H28.1405H28.1501H28.1596H28.1692H28.1788H28.1885H28.1982H28.2079H28.2176H28.2274H28.2372H28.247H28.2568H28.2667H28.2766H28.2866H28.2965H28.3065H28.3165H28.3266H28.3366H28.3467H28.3569H28.367H28.3772H28.3874H28.3976H28.4079H28.4182H28.4285H28.4388H28.4492H28.4595H28.47H28.4804H28.4908H28.5013H28.5118H28.5224H28.5329H28.5435H28.5541H28.5647H28.5754H28.586H28.5967H28.6075H28.6182H28.629H28.6397H28.6506H28.6614H28.6722H28.6831H28.694H28.7049H28.7159H28.7268H28.7378H28.7488H28.7598H28.7709H28.7819H28.793H28.8041H28.8152H28.8264H28.8376H28.8487H28.8599H28.8712H28.8824H28.8937H28.9049H28.9162H28.9275H28.9389H28.9502H28.9616H28.973H28.9844H28.9958H29.0073H29.0187H29.0302H29.0417H29.0532H29.0647H29.0762H29.0878H29.0994H29.111H29.1226H29.1342H29.1458H29.1575H29.1691H29.1808H29.1925H29.2042H29.2159H29.2277H29.2394H29.2512H29.263H29.2748H29.2866H29.2984H29.3102H29.3221H29.3339H29.3458H29.3577H29.3696H29.3815H29.3934H29.4054H29.4173H29.4293H29.4412H29.4532H29.4652H29.4772H29.4892H29.5012H29.5133H29.5253H29.5374H29.5494H29.5615H29.5736H29.5857H29.5978H29.6099H29.622H29.6342H29.6463H29.6585H29.6706H29.6828H29.695H29.7071H29.7193H29.7315H29.7437H29.756H29.7682H29.7804H29.7926H29.8049H29.8171H29.8294H29.8416H29.8539H29.8662H29.8785H29.8908H29.903H29.9153H29.9276H29.9399H29.9523H29.9646H29.9769H29.9892H30.0015H30.0139H30.0262H30.0386H30.0509H30.0633H30.0756H30.088H30.1003H30.1127H30.125H30.1374H30.1498H30.1622H30.1745H30.1869H30.1993H30.2117H30.224H30.2364H30.2488H30.2612H30.2736H30.286H30.2983H30.3107H30.3231H30.3355H30.3479H30.3603H30.3727H30.3851H30.3974H30.4098H30.4222H30.4346H30.447H30.4594H30.4717H30.4841H30.4965H30.5089H30.5212H30.5336H30.546H30.5583H30.5707H30.583H30.5954H30.6077H30.6201H30.6324H30.6448H30.6571H30.6694H30.6818H30.6941H30.7064H30.7187H30.731H30.7433H30.7556H30.7679H30.7802H30.7925H30.8047H30.817H30.8293H30.8415H30.8538H30.866H30.8783H30.8905H30.9027H30.9149H30.9271H30.9393H30.9515H30.9637H30.9759H30.9881H31.0002H31.0124H31.0245H31.0367H31.0488H31.0609H31.073H31.0851H31.0972H31.1093H31.1213H31.1334H31.1454H31.1575H31.1695H31.1815H31.1935H31.2055H31.2175H31.2295H31.2414H31.2534H31.2653H31.2773H31.2892H31.3011H31.313H31.3248H31.3367H31.3485H31.3604H31.3722H31.384H31.3958H31.4076H31.4194H31.4311H31.4429H31.4546H31.4663H31.478H31.4897H31.5014H31.513H31.5247H31.5363H31.5479H31.5595H31.571H31.5826H31.5942H31.6057H31.6172H31.6287H31.6402H31.6516H31.6631H31.6745H31.6859H31.6973H31.7087H31.72H31.7314H31.7427H31.754H31.7653H31.7765H31.7878H31.799H31.8102H31.8214H31.8326H31.8437H31.8548H31.866H31.877H31.8881H31.8992H31.9102H31.9212H31.9322H31.9431H31.9541H31.965H31.9759H31.9868H31.9977H32.0085H32.0193H32.0301H32.0409H32.0516H32.0623H32.073H32.0837H32.0944H32.105H32.1156H32.1262H32.1368H32.1473H32.1578H32.1683H32.1788H32.1892H32.1996H32.21H32.2204H32.2307H32.241H32.2513H32.2616H32.2718H32.282H32.2922H32.3024H32.3125H32.3226H32.3327H32.3427H32.3527H32.3627H32.3727H32.3827H32.3926H32.4025H32.4123H32.4221H32.432H32.4417H32.4515H32.4612H32.4709H32.4805H32.4902H32.4998H32.5093H32.5189H32.5284H32.5379H32.5473H32.5567H32.5661H32.5755H32.5848H32.5941H32.6034H32.6126H32.6218H32.631H32.6401H32.6492H32.6583H32.6673H32.6763H32.6853H32.6943H32.7032H32.712H32.7209H32.7297H32.7385H32.7472H32.7559H32.7646H32.7733H32.7819H32.7904H32.799H32.8075H32.816H32.8244H32.8328H32.8412H32.8495H32.8578H32.866H32.8743H32.8824H32.8906H32.8987H32.9068H32.9148H32.9228H32.9308H32.9387H32.9466H32.9545H32.9623H32.97H32.9778H32.9855H32.9931H33.0008H33.0084H33.0159H33.0234H33.0309H33.0383H33.0457H33.053H33.0604H33.0676H33.0749H33.082H33.0892H33.0963H33.1034H33.1104H33.1174H33.1243H33.1312H33.1381H33.1449H33.1517H33.1584H33.1651H33.1718H33.1784H33.185H33.1915H33.198H33.2044H33.2108H33.2172H33.2235H33.2297H33.236H33.2421H33.2483H33.2544H33.2604H33.2664H33.2724H33.2783C33.9026 14.875 34.4823 15.0053 34.9782 15.3099C35.4813 15.619 35.8027 16.0489 35.9998 16.485C36.3399 17.237 36.338 18.0995 36.3371 18.5579V18.558L36.337 18.625V18.6321V18.6392V18.6463V18.6535V18.6608V18.668V18.6754V18.6828V18.6902V18.6977V18.7052V18.7128V18.7204V18.7281V18.7358V18.7435V18.7514V18.7592V18.7671V18.775V18.783V18.791V18.7991V18.8072V18.8154V18.8236V18.8319V18.8402V18.8485V18.8569V18.8653V18.8738V18.8823V18.8908V18.8994V18.9081V18.9168V18.9255V18.9343V18.9431V18.9519V18.9608V18.9698V18.9787V18.9878V18.9968V19.0059V19.0151V19.0243V19.0335V19.0427V19.052V19.0614V19.0708V19.0802V19.0897V19.0992V19.1087V19.1183V19.1279V19.1376V19.1473V19.157V19.1668V19.1766V19.1865V19.1964V19.2063V19.2163V19.2263V19.2363V19.2464V19.2565V19.2667V19.2768V19.2871V19.2973V19.3076V19.318V19.3283V19.3387V19.3492V19.3597V19.3702V19.3807V19.3913V19.4019V19.4126V19.4233V19.434V19.4448V19.4556V19.4664V19.4772V19.4881V19.4991V19.51V19.521V19.5321V19.5431V19.5542V19.5653V19.5765V19.5877V19.5989V19.6102V19.6215V19.6328V19.6441V19.6555V19.6669V19.6784V19.6899V19.7014V19.7129V19.7245V19.7361V19.7477V19.7594V19.771V19.7828V19.7945V19.8063V19.8181V19.8299V19.8418V19.8537V19.8656V19.8776V19.8896V19.9016V19.9136V19.9257V19.9378V19.9499V19.962V19.9742V19.9864V19.9986V20.0109V20.0232V20.0355V20.0478V20.0602V20.0726V20.085V20.0974V20.1099V20.1224V20.1349V20.1475V20.16V20.1726V20.1853V20.1979V20.2106V20.2233V20.236V20.2487V20.2615V20.2743V20.2871V20.2999V20.3128V20.3256V20.3386V20.3515V20.3644V20.3774V20.3904V20.4034V20.4165V20.4295V20.4426V20.4557V20.4688V20.482V20.4951V20.5083V20.5215V20.5348V20.548V20.5613V20.5746V20.5879V20.6012V20.6146V20.628V20.6414V20.6548V20.6682V20.6816V20.6951V20.7086V20.7221V20.7356V20.7492V20.7627V20.7763V20.7899V20.8035V20.8171V20.8308V20.8445V20.8581V20.8718V20.8856V20.8993V20.913V20.9268V20.9406V20.9544V20.9682V20.982V20.9959V21.0097V21.0236V21.0375V21.0514V21.0653V21.0793V21.0932V21.1072V21.1211V21.1351V21.1491V21.1632V21.1772V21.1912V21.2053V21.2194V21.2335V21.2476V21.2617V21.2758V21.2899V21.3041V21.3182V21.3324V21.3466V21.3608V21.375V21.3892V21.4034V21.4177V21.4319V21.4462V21.4605V21.4747V21.489V21.5033V21.5177V21.532V21.5463V21.5606V21.575V21.5894V21.6037V21.6181V21.6325V21.6469V21.6613V21.6757V21.6901V21.7046V21.719V21.7334V21.7479V21.7623V21.7768V21.7913V21.8058V21.8202V21.8347V21.8492V21.8637V21.8782V21.8928V21.9073V21.9218V21.9364V21.9509V21.9654V21.98V21.9945V22.0091V22.0237V22.0382V22.0528V22.0674V22.082V22.0965V22.1111V22.125H39C41.2091 22.125 43 23.9159 43 26.125V41.125C43 43.3341 41.2091 45.125 39 45.125H21C18.7909 45.125 17 43.3341 17 41.125V26.125C17 23.9159 18.7909 22.125 21 22.125H24.7935Z" fill="white"/>
</svg>
