<svg width="50" height="50" viewBox="0 0 50 50" fill="none" xmlns="http://www.w3.org/2000/svg">
<rect width="50" height="50" fill="#1A2E35"/>
<path fill-rule="evenodd" clip-rule="evenodd" d="M23.2935 13.75C23.2935 13.5369 23.2944 13.3371 23.3151 13.1363C23.336 12.9342 23.3725 12.7859 23.4162 12.6852C23.4553 12.5952 23.4866 12.5723 23.4991 12.5641C23.5104 12.5565 23.5966 12.5 23.8522 12.5H23.8607H23.8692H23.8778H23.8864H23.895H23.9037H23.9124H23.9211H23.9299H23.9387H23.9475H23.9564H23.9653H23.9742H23.9832H23.9922H24.0012H24.0103H24.0194H24.0285H24.0377H24.0469H24.0561H24.0654H24.0746H24.084H24.0933H24.1027H24.1121H24.1215H24.131H24.1405H24.1501H24.1596H24.1692H24.1788H24.1885H24.1982H24.2079H24.2176H24.2274H24.2372H24.247H24.2568H24.2667H24.2766H24.2866H24.2965H24.3065H24.3165H24.3266H24.3366H24.3467H24.3569H24.367H24.3772H24.3874H24.3976H24.4079H24.4182H24.4285H24.4388H24.4492H24.4595H24.47H24.4804H24.4908H24.5013H24.5118H24.5224H24.5329H24.5435H24.5541H24.5647H24.5754H24.586H24.5967H24.6075H24.6182H24.629H24.6397H24.6506H24.6614H24.6722H24.6831H24.694H24.7049H24.7159H24.7268H24.7378H24.7488H24.7598H24.7709H24.7819H24.793H24.8041H24.8152H24.8264H24.8376H24.8487H24.8599H24.8712H24.8824H24.8937H24.9049H24.9162H24.9275H24.9389H24.9502H24.9616H24.973H24.9844H24.9958H25.0073H25.0187H25.0302H25.0417H25.0532H25.0647H25.0762H25.0878H25.0994H25.111H25.1226H25.1342H25.1458H25.1575H25.1691H25.1808H25.1925H25.2042H25.2159H25.2277H25.2394H25.2512H25.263H25.2748H25.2866H25.2984H25.3102H25.3221H25.3339H25.3458H25.3577H25.3696H25.3815H25.3934H25.4054H25.4173H25.4293H25.4412H25.4532H25.4652H25.4772H25.4892H25.5012H25.5133H25.5253H25.5374H25.5494H25.5615H25.5736H25.5857H25.5978H25.6099H25.622H25.6342H25.6463H25.6585H25.6706H25.6828H25.695H25.7071H25.7193H25.7315H25.7437H25.756H25.7682H25.7804H25.7926H25.8049H25.8171H25.8294H25.8416H25.8539H25.8662H25.8785H25.8908H25.903H25.9153H25.9276H25.9399H25.9523H25.9646H25.9769H25.9892H26.0015H26.0139H26.0262H26.0386H26.0509H26.0633H26.0756H26.088H26.1003H26.1127H26.125H26.1374H26.1498H26.1622H26.1745H26.1869H26.1993H26.2117H26.224H26.2364H26.2488H26.2612H26.2736H26.286H26.2983H26.3107H26.3231H26.3355H26.3479H26.3603H26.3727H26.3851H26.3974H26.4098H26.4222H26.4346H26.447H26.4594H26.4717H26.4841H26.4965H26.5089H26.5212H26.5336H26.546H26.5583H26.5707H26.583H26.5954H26.6077H26.6201H26.6324H26.6448H26.6571H26.6694H26.6818H26.6941H26.7064H26.7187H26.731H26.7433H26.7556H26.7679H26.7802H26.7925H26.8047H26.817H26.8293H26.8415H26.8538H26.866H26.8783H26.8905H26.9027H26.9149H26.9271H26.9393H26.9515H26.9637H26.9759H26.9881H27.0002H27.0124H27.0245H27.0367H27.0488H27.0609H27.073H27.0851H27.0972H27.1093H27.1213H27.1334H27.1454H27.1575H27.1695H27.1815H27.1935H27.2055H27.2175H27.2295H27.2414H27.2534H27.2653H27.2773H27.2892H27.3011H27.313H27.3248H27.3367H27.3485H27.3604H27.3722H27.384H27.3958H27.4076H27.4194H27.4311H27.4429H27.4546H27.4663H27.478H27.4897H27.5014H27.513H27.5247H27.5363H27.5479H27.5595H27.571H27.5826H27.5942H27.6057H27.6172H27.6287H27.6402H27.6516H27.6631H27.6745H27.6859H27.6973H27.7087H27.72H27.7314H27.7427H27.754H27.7653H27.7765H27.7878H27.799H27.8102H27.8214H27.8326H27.8437H27.8548H27.866H27.877H27.8881H27.8992H27.9102H27.9212H27.9322H27.9431H27.9541H27.965H27.9759H27.9868H27.9977H28.0085H28.0193H28.0301H28.0409H28.0516H28.0623H28.073H28.0837H28.0944H28.105H28.1156H28.1262H28.1368H28.1473H28.1578H28.1683H28.1788H28.1892H28.1996H28.21H28.2204H28.2307H28.241H28.2513H28.2616H28.2718H28.282H28.2922H28.3024H28.3125H28.3226H28.3327H28.3427H28.3527H28.3627H28.3727H28.3827H28.3926H28.4025H28.4123H28.4221H28.432H28.4417H28.4515H28.4612H28.4709H28.4805H28.4902H28.4998H28.5093H28.5189H28.5284H28.5379H28.5473H28.5567H28.5661H28.5755H28.5848H28.5941H28.6034H28.6126H28.6218H28.631H28.6401H28.6492H28.6583H28.6673H28.6763H28.6853H28.6943H28.7032H28.712H28.7209H28.7297H28.7385H28.7472H28.7559H28.7646H28.7733H28.7819H28.7904H28.799H28.8075H28.816H28.8244H28.8328H28.8412H28.8495H28.8578H28.866H28.8743H28.8824H28.8906H28.8987H28.9068H28.9148H28.9228H28.9308H28.9387H28.9466H28.9545H28.9623H28.97H28.9778H28.9855H28.9931H29.0008H29.0084H29.0159H29.0234H29.0309H29.0383H29.0457H29.053H29.0604H29.0676H29.0749H29.082H29.0892H29.0963H29.1034H29.1104H29.1174H29.1243H29.1312H29.1381H29.1449H29.1517H29.1584H29.1651H29.1718H29.1784H29.185H29.1915H29.198H29.2044H29.2108H29.2172H29.2235H29.2297H29.236H29.2421H29.2483H29.2544H29.2604H29.2664H29.2724H29.2783C29.5582 12.5 29.6568 12.5572 29.6696 12.5651L29.6707 12.5657C29.6772 12.5695 29.6946 12.5797 29.7219 12.64C29.758 12.7198 29.7939 12.8532 29.815 13.0625C29.836 13.2717 29.837 13.4915 29.837 13.75V13.7571V13.7642V13.7713V13.7785V13.7858V13.793V13.8004V13.8078V13.8152V13.8227V13.8302V13.8378V13.8454V13.8531V13.8608V13.8685V13.8764V13.8842V13.8921V13.9V13.908V13.916V13.9241V13.9322V13.9404V13.9486V13.9569V13.9652V13.9735V13.9819V13.9903V13.9988V14.0073V14.0158V14.0244V14.0331V14.0418V14.0505V14.0593V14.0681V14.0769V14.0858V14.0948V14.1037V14.1128V14.1218V14.1309V14.1401V14.1493V14.1585V14.1677V14.177V14.1864V14.1958V14.2052V14.2147V14.2242V14.2337V14.2433V14.2529V14.2626V14.2723V14.282V14.2918V14.3016V14.3115V14.3214V14.3313V14.3413V14.3513V14.3613V14.3714V14.3815V14.3917V14.4018V14.4121V14.4223V14.4326V14.443V14.4533V14.4637V14.4742V14.4847V14.4952V14.5057V14.5163V14.5269V14.5376V14.5483V14.559V14.5698V14.5806V14.5914V14.6022V14.6131V14.6241V14.635V14.646V14.6571V14.6681V14.6792V14.6903V14.7015V14.7127V14.7239V14.7352V14.7465V14.7578V14.7691V14.7805V14.7919V14.8034V14.8149V14.8264V14.8379V14.8495V14.8611V14.8727V14.8844V14.896V14.9078V14.9195V14.9313V14.9431V14.9549V14.9668V14.9787V14.9906V15.0026V15.0146V15.0266V15.0386V15.0507V15.0628V15.0749V15.087V15.0992V15.1114V15.1236V15.1359V15.1482V15.1605V15.1728V15.1852V15.1976V15.21V15.2224V15.2349V15.2474V15.2599V15.2725V15.285V15.2976V15.3103V15.3229V15.3356V15.3483V15.361V15.3737V15.3865V15.3993V15.4121V15.4249V15.4378V15.4506V15.4636V15.4765V15.4894V15.5024V15.5154V15.5284V15.5415V15.5545V15.5676V15.5807V15.5938V15.607V15.6201V15.6333V15.6465V15.6598V15.673V15.6863V15.6996V15.7129V15.7262V15.7396V15.753V15.7664V15.7798V15.7932V15.8066V15.8201V15.8336V15.8471V15.8606V15.8742V15.8877V15.9013V15.9149V15.9285V15.9421V15.9558V15.9695V15.9831V15.9968V16.0106V16.0243V16.038V16.0518V16.0656V16.0794V16.0932V16.107V16.1209V16.1347V16.1486V16.1625V16.1764V16.1903V16.2043V16.2182V16.2322V16.2461V16.2601V16.2741V16.2882V16.3022V16.3162V16.3303V16.3444V16.3585V16.3726V16.3867V16.4008V16.4149V16.4291V16.4432V16.4574V16.4716V16.4858V16.5V16.5142V16.5284V16.5427V16.5569V16.5712V16.5855V16.5997V16.614V16.6283V16.6427V16.657V16.6713V16.6856V16.7V16.7144V16.7287V16.7431V16.7575V16.7719V16.7863V16.8007V16.8151V16.8296V16.844V16.8584V16.8729V16.8873V16.9018V16.9163V16.9308V16.9452V16.9597V16.9742V16.9887V17.0032V17.0178V17.0323V17.0468V17.0614V17.0759V17.0904V17.105V17.1195V17.1341V17.1487V17.1632V17.1778V17.1924V17.207V17.2215V17.2361V17.25H23.2935V13.75ZM20.7935 19.75V20.25C20.7935 20.9404 21.3531 21.5 22.0435 21.5C22.7338 21.5 23.2935 20.9404 23.2935 20.25V19.75H29.837V19.7591V19.7718V19.7846V19.7973V19.81V19.8227V19.8354V19.848V19.8606V19.8732V19.8857V19.8983V19.9108V19.9232V19.9357V19.9481V19.9605V19.9729V19.9853V19.9976V20.0099V20.0221V20.0344V20.0466V20.0588V20.071V20.0831V20.0952V20.1073V20.1193V20.1314V20.1433V20.1553V20.1672V20.1792V20.191V20.2029V20.2147V20.2265V20.2383V20.25C29.837 20.9404 30.3966 21.5 31.087 21.5C31.7773 21.5 32.337 20.9404 32.337 20.25V20.2383V20.2265V20.2147V20.2029V20.191V20.1792V20.1672V20.1553V20.1433V20.1314V20.1193V20.1073V20.0952V20.0831V20.071V20.0588V20.0466V20.0344V20.0221V20.0099V19.9976V19.9853V19.9729V19.9605V19.9481V19.9357V19.9232V19.9108V19.8983V19.8857V19.8732V19.8606V19.848V19.8354V19.8227V19.81V19.7973V19.7846V19.7718V19.7591V19.75H35C35.8284 19.75 36.5 20.4216 36.5 21.25V36.25C36.5 37.0784 35.8284 37.75 35 37.75H17C16.1716 37.75 15.5 37.0784 15.5 36.25V21.25C15.5 20.4216 16.1716 19.75 17 19.75H20.7935ZM20.7935 17.25V13.75L20.7934 13.7005C20.7927 13.303 20.7912 12.454 21.1229 11.6898C21.3099 11.259 21.6177 10.8131 22.114 10.4828C22.6114 10.1518 23.2034 10 23.8522 10H23.8607H23.8692H23.8778H23.8864H23.895H23.9037H23.9124H23.9211H23.9299H23.9387H23.9475H23.9564H23.9653H23.9742H23.9832H23.9922H24.0012H24.0103H24.0194H24.0285H24.0377H24.0469H24.0561H24.0654H24.0746H24.084H24.0933H24.1027H24.1121H24.1215H24.131H24.1405H24.1501H24.1596H24.1692H24.1788H24.1885H24.1982H24.2079H24.2176H24.2274H24.2372H24.247H24.2568H24.2667H24.2766H24.2866H24.2965H24.3065H24.3165H24.3266H24.3366H24.3467H24.3569H24.367H24.3772H24.3874H24.3976H24.4079H24.4182H24.4285H24.4388H24.4492H24.4595H24.47H24.4804H24.4908H24.5013H24.5118H24.5224H24.5329H24.5435H24.5541H24.5647H24.5754H24.586H24.5967H24.6075H24.6182H24.629H24.6397H24.6506H24.6614H24.6722H24.6831H24.694H24.7049H24.7159H24.7268H24.7378H24.7488H24.7598H24.7709H24.7819H24.793H24.8041H24.8152H24.8264H24.8376H24.8487H24.8599H24.8712H24.8824H24.8937H24.9049H24.9162H24.9275H24.9389H24.9502H24.9616H24.973H24.9844H24.9958H25.0073H25.0187H25.0302H25.0417H25.0532H25.0647H25.0762H25.0878H25.0994H25.111H25.1226H25.1342H25.1458H25.1575H25.1691H25.1808H25.1925H25.2042H25.2159H25.2277H25.2394H25.2512H25.263H25.2748H25.2866H25.2984H25.3102H25.3221H25.3339H25.3458H25.3577H25.3696H25.3815H25.3934H25.4054H25.4173H25.4293H25.4412H25.4532H25.4652H25.4772H25.4892H25.5012H25.5133H25.5253H25.5374H25.5494H25.5615H25.5736H25.5857H25.5978H25.6099H25.622H25.6342H25.6463H25.6585H25.6706H25.6828H25.695H25.7071H25.7193H25.7315H25.7437H25.756H25.7682H25.7804H25.7926H25.8049H25.8171H25.8294H25.8416H25.8539H25.8662H25.8785H25.8908H25.903H25.9153H25.9276H25.9399H25.9523H25.9646H25.9769H25.9892H26.0015H26.0139H26.0262H26.0386H26.0509H26.0633H26.0756H26.088H26.1003H26.1127H26.125H26.1374H26.1498H26.1622H26.1745H26.1869H26.1993H26.2117H26.224H26.2364H26.2488H26.2612H26.2736H26.286H26.2983H26.3107H26.3231H26.3355H26.3479H26.3603H26.3727H26.3851H26.3974H26.4098H26.4222H26.4346H26.447H26.4594H26.4717H26.4841H26.4965H26.5089H26.5212H26.5336H26.546H26.5583H26.5707H26.583H26.5954H26.6077H26.6201H26.6324H26.6448H26.6571H26.6694H26.6818H26.6941H26.7064H26.7187H26.731H26.7433H26.7556H26.7679H26.7802H26.7925H26.8047H26.817H26.8293H26.8415H26.8538H26.866H26.8783H26.8905H26.9027H26.9149H26.9271H26.9393H26.9515H26.9637H26.9759H26.9881H27.0002H27.0124H27.0245H27.0367H27.0488H27.0609H27.073H27.0851H27.0972H27.1093H27.1213H27.1334H27.1454H27.1575H27.1695H27.1815H27.1935H27.2055H27.2175H27.2295H27.2414H27.2534H27.2653H27.2773H27.2892H27.3011H27.313H27.3248H27.3367H27.3485H27.3604H27.3722H27.384H27.3958H27.4076H27.4194H27.4311H27.4429H27.4546H27.4663H27.478H27.4897H27.5014H27.513H27.5247H27.5363H27.5479H27.5595H27.571H27.5826H27.5942H27.6057H27.6172H27.6287H27.6402H27.6516H27.6631H27.6745H27.6859H27.6973H27.7087H27.72H27.7314H27.7427H27.754H27.7653H27.7765H27.7878H27.799H27.8102H27.8214H27.8326H27.8437H27.8548H27.866H27.877H27.8881H27.8992H27.9102H27.9212H27.9322H27.9431H27.9541H27.965H27.9759H27.9868H27.9977H28.0085H28.0193H28.0301H28.0409H28.0516H28.0623H28.073H28.0837H28.0944H28.105H28.1156H28.1262H28.1368H28.1473H28.1578H28.1683H28.1788H28.1892H28.1996H28.21H28.2204H28.2307H28.241H28.2513H28.2616H28.2718H28.282H28.2922H28.3024H28.3125H28.3226H28.3327H28.3427H28.3527H28.3627H28.3727H28.3827H28.3926H28.4025H28.4123H28.4221H28.432H28.4417H28.4515H28.4612H28.4709H28.4805H28.4902H28.4998H28.5093H28.5189H28.5284H28.5379H28.5473H28.5567H28.5661H28.5755H28.5848H28.5941H28.6034H28.6126H28.6218H28.631H28.6401H28.6492H28.6583H28.6673H28.6763H28.6853H28.6943H28.7032H28.712H28.7209H28.7297H28.7385H28.7472H28.7559H28.7646H28.7733H28.7819H28.7904H28.799H28.8075H28.816H28.8244H28.8328H28.8412H28.8495H28.8578H28.866H28.8743H28.8824H28.8906H28.8987H28.9068H28.9148H28.9228H28.9308H28.9387H28.9466H28.9545H28.9623H28.97H28.9778H28.9855H28.9931H29.0008H29.0084H29.0159H29.0234H29.0309H29.0383H29.0457H29.053H29.0604H29.0676H29.0749H29.082H29.0892H29.0963H29.1034H29.1104H29.1174H29.1243H29.1312H29.1381H29.1449H29.1517H29.1584H29.1651H29.1718H29.1784H29.185H29.1915H29.198H29.2044H29.2108H29.2172H29.2235H29.2297H29.236H29.2421H29.2483H29.2544H29.2604H29.2664H29.2724H29.2783C29.9026 10 30.4823 10.1303 30.9782 10.4349C31.4813 10.744 31.8027 11.1739 31.9998 11.61C32.3399 12.362 32.338 13.2245 32.3371 13.6829V13.683L32.337 13.75V13.7571V13.7642V13.7713V13.7785V13.7858V13.793V13.8004V13.8078V13.8152V13.8227V13.8302V13.8378V13.8454V13.8531V13.8608V13.8685V13.8764V13.8842V13.8921V13.9V13.908V13.916V13.9241V13.9322V13.9404V13.9486V13.9569V13.9652V13.9735V13.9819V13.9903V13.9988V14.0073V14.0158V14.0244V14.0331V14.0418V14.0505V14.0593V14.0681V14.0769V14.0858V14.0948V14.1037V14.1128V14.1218V14.1309V14.1401V14.1493V14.1585V14.1677V14.177V14.1864V14.1958V14.2052V14.2147V14.2242V14.2337V14.2433V14.2529V14.2626V14.2723V14.282V14.2918V14.3016V14.3115V14.3214V14.3313V14.3413V14.3513V14.3613V14.3714V14.3815V14.3917V14.4018V14.4121V14.4223V14.4326V14.443V14.4533V14.4637V14.4742V14.4847V14.4952V14.5057V14.5163V14.5269V14.5376V14.5483V14.559V14.5698V14.5806V14.5914V14.6022V14.6131V14.6241V14.635V14.646V14.6571V14.6681V14.6792V14.6903V14.7015V14.7127V14.7239V14.7352V14.7465V14.7578V14.7691V14.7805V14.7919V14.8034V14.8149V14.8264V14.8379V14.8495V14.8611V14.8727V14.8844V14.896V14.9078V14.9195V14.9313V14.9431V14.9549V14.9668V14.9787V14.9906V15.0026V15.0146V15.0266V15.0386V15.0507V15.0628V15.0749V15.087V15.0992V15.1114V15.1236V15.1359V15.1482V15.1605V15.1728V15.1852V15.1976V15.21V15.2224V15.2349V15.2474V15.2599V15.2725V15.285V15.2976V15.3103V15.3229V15.3356V15.3483V15.361V15.3737V15.3865V15.3993V15.4121V15.4249V15.4378V15.4506V15.4636V15.4765V15.4894V15.5024V15.5154V15.5284V15.5415V15.5545V15.5676V15.5807V15.5938V15.607V15.6201V15.6333V15.6465V15.6598V15.673V15.6863V15.6996V15.7129V15.7262V15.7396V15.753V15.7664V15.7798V15.7932V15.8066V15.8201V15.8336V15.8471V15.8606V15.8742V15.8877V15.9013V15.9149V15.9285V15.9421V15.9558V15.9695V15.9831V15.9968V16.0106V16.0243V16.038V16.0518V16.0656V16.0794V16.0932V16.107V16.1209V16.1347V16.1486V16.1625V16.1764V16.1903V16.2043V16.2182V16.2322V16.2461V16.2601V16.2741V16.2882V16.3022V16.3162V16.3303V16.3444V16.3585V16.3726V16.3867V16.4008V16.4149V16.4291V16.4432V16.4574V16.4716V16.4858V16.5V16.5142V16.5284V16.5427V16.5569V16.5712V16.5855V16.5997V16.614V16.6283V16.6427V16.657V16.6713V16.6856V16.7V16.7144V16.7287V16.7431V16.7575V16.7719V16.7863V16.8007V16.8151V16.8296V16.844V16.8584V16.8729V16.8873V16.9018V16.9163V16.9308V16.9452V16.9597V16.9742V16.9887V17.0032V17.0178V17.0323V17.0468V17.0614V17.0759V17.0904V17.105V17.1195V17.1341V17.1487V17.1632V17.1778V17.1924V17.207V17.2215V17.2361V17.25H35C37.2091 17.25 39 19.0409 39 21.25V36.25C39 38.4591 37.2091 40.25 35 40.25H17C14.7909 40.25 13 38.4591 13 36.25V21.25C13 19.0409 14.7909 17.25 17 17.25H20.7935Z" fill="white"/>
</svg>
