<svg width="50" height="51" viewBox="0 0 50 51" fill="none" xmlns="http://www.w3.org/2000/svg">
<rect width="49.3299" height="50.0876" fill="#1A2E35"/>
<path fill-rule="evenodd" clip-rule="evenodd" d="M28.769 16.9948C28.769 19.2011 26.9804 20.9897 24.7741 20.9897C22.5679 20.9897 20.7793 19.2011 20.7793 16.9948C20.7793 14.7886 22.5679 13 24.7741 13C26.9804 13 28.769 14.7886 28.769 16.9948ZM29.2088 22.4045C30.7718 21.1217 31.769 19.1747 31.769 16.9948C31.769 13.1317 28.6373 10 24.7741 10C20.911 10 17.7793 13.1317 17.7793 16.9948C17.7793 19.1904 18.7908 21.1496 20.3733 22.4321C19.1737 22.7495 18.1075 23.1975 17.1635 23.759C15.1475 24.9579 13.784 26.617 12.8719 28.4147C11.0831 31.9404 11 36.077 11 38.5876V40.0876H12.5H36.8299H38.3299L38.3299 38.5876C38.3299 36.0606 38.2052 31.9451 36.4872 28.4341C35.6129 26.6474 34.3119 24.9851 32.3908 23.7781C31.4568 23.1913 30.3997 22.7269 29.2088 22.4045ZM35.307 37.0876H14.0199C14.0893 34.7881 14.384 32.0648 15.5472 29.7721C16.2441 28.3987 17.2437 27.2018 18.6969 26.3375C20.155 25.4704 22.1652 24.8814 24.9691 24.8814C27.5657 24.8814 29.4324 25.4624 30.7948 26.3184C32.1577 27.1746 33.1151 28.3683 33.7925 29.7527C34.9194 32.0556 35.2302 34.7925 35.307 37.0876Z" fill="white"/>
</svg>
