<svg width="60" height="60" viewBox="0 0 60 60" fill="none" xmlns="http://www.w3.org/2000/svg">
<rect width="60" height="60" rx="30" fill="#1A2E35"/>
<path fill-rule="evenodd" clip-rule="evenodd" d="M34.1041 21.951C34.1041 24.1573 32.3155 25.9459 30.1092 25.9459C27.9029 25.9459 26.1144 24.1573 26.1144 21.951C26.1144 19.7447 27.9029 17.9562 30.1092 17.9562C32.3155 17.9562 34.1041 19.7447 34.1041 21.951ZM34.5439 27.3607C36.1069 26.0779 37.1041 24.1309 37.1041 21.951C37.1041 18.0879 33.9724 14.9562 30.1092 14.9562C26.2461 14.9562 23.1144 18.0879 23.1144 21.951C23.1144 24.1466 24.1259 26.1058 25.7083 27.3882C24.5087 27.7057 23.4426 28.1537 22.4985 28.7152C20.4826 29.9141 19.1191 31.5732 18.207 33.3709C16.4182 36.8966 16.3351 41.0331 16.3351 43.5438V45.0438H17.8351H42.165H43.665L43.665 43.5438C43.665 41.0167 43.5403 36.9013 41.8223 33.3903C40.948 31.6035 39.647 29.9413 37.7258 28.7343C36.7919 28.1475 35.7348 27.6831 34.5439 27.3607ZM40.6421 42.0438H19.355C19.4244 39.7443 19.7191 37.021 20.8823 34.7283C21.5792 33.3549 22.5787 32.1579 24.032 31.2937C25.49 30.4265 27.5003 29.8376 30.3042 29.8376C32.9008 29.8376 34.7675 30.4186 36.1299 31.2746C37.4927 32.1308 38.4502 33.3245 39.1276 34.7089C40.2545 37.0117 40.5653 39.7487 40.6421 42.0438Z" fill="white"/>
</svg>
