<svg width="60" height="60" viewBox="0 0 60 60" fill="none" xmlns="http://www.w3.org/2000/svg">
<rect width="60" height="60" rx="30" fill="#1A2E35"/>
<path fill-rule="evenodd" clip-rule="evenodd" d="M18.1223 27.6714C18.1223 22.601 22.3586 18.4209 27.6714 18.4209C32.9842 18.4209 37.2205 22.601 37.2205 27.6714C37.2205 32.7418 32.9842 36.9218 27.6714 36.9218C22.3586 36.9218 18.1223 32.7418 18.1223 27.6714ZM27.6714 15.4209C20.7797 15.4209 15.1223 20.8671 15.1223 27.6714C15.1223 34.4756 20.7797 39.9218 27.6714 39.9218C30.6034 39.9218 33.312 38.936 35.4566 37.2793L42.3171 44.1398C42.9029 44.7256 43.8527 44.7256 44.4385 44.1398C45.0242 43.554 45.0242 42.6043 44.4385 42.0185L37.5938 35.1738C39.2383 33.1059 40.2205 30.5065 40.2205 27.6714C40.2205 20.8671 34.5631 15.4209 27.6714 15.4209Z" fill="white"/>
</svg>
