<svg width="49" height="50" viewBox="0 0 49 50" fill="none" xmlns="http://www.w3.org/2000/svg">
<rect width="49" height="50" fill="#1A2E35"/>
<path fill-rule="evenodd" clip-rule="evenodd" d="M12.6223 22.6714C12.6223 17.601 16.8586 13.4209 22.1714 13.4209C27.4842 13.4209 31.7205 17.601 31.7205 22.6714C31.7205 27.7418 27.4842 31.9218 22.1714 31.9218C16.8586 31.9218 12.6223 27.7418 12.6223 22.6714ZM22.1714 10.4209C15.2797 10.4209 9.62231 15.8671 9.62231 22.6714C9.62231 29.4756 15.2797 34.9218 22.1714 34.9218C25.1034 34.9218 27.812 33.936 29.9566 32.2793L36.8171 39.1398C37.4029 39.7256 38.3527 39.7256 38.9385 39.1398C39.5242 38.554 39.5242 37.6043 38.9385 37.0185L32.0938 30.1738C33.7383 28.1059 34.7205 25.5065 34.7205 22.6714C34.7205 15.8671 29.0631 10.4209 22.1714 10.4209Z" fill="white"/>
</svg>
